<svg width="30" height="30" viewBox="0 0 30 30" fill="none" xmlns="http://www.w3.org/2000/svg">
<mask id="mask0_1_1622" style="mask-type:luminance" maskUnits="userSpaceOnUse" x="0" y="0" width="30" height="30">
<path fill-rule="evenodd" clip-rule="evenodd" d="M14.621 0C6.547 0 0 6.547 0 14.622C0 22.696 6.547 29.243 14.621 29.243C22.696 29.243 29.243 22.696 29.243 14.622C29.243 6.547 22.696 0 14.621 0Z" fill="white"/>
</mask>
<g mask="url(#mask0_1_1622)">
<path fill-rule="evenodd" clip-rule="evenodd" d="M14.621 0C6.547 0 0 6.547 0 14.622C0 22.696 6.547 29.243 14.621 29.243C22.696 29.243 29.243 22.696 29.243 14.622C29.243 6.547 22.696 0 14.621 0Z" fill="url(#paint0_linear_1_1622)"/>
</g>
<path fill-rule="evenodd" clip-rule="evenodd" d="M19.16 9.09033C18.605 9.09033 18.155 9.54033 18.155 10.0953C18.155 10.6503 18.605 11.1003 19.16 11.1003C19.715 11.1003 20.165 10.6503 20.165 10.0953C20.165 9.54033 19.715 9.09033 19.16 9.09033Z" fill="white"/>
<path fill-rule="evenodd" clip-rule="evenodd" d="M14.6918 17.3056C13.2008 17.3056 11.9878 16.0926 11.9878 14.6016C11.9878 13.1096 13.2008 11.8966 14.6918 11.8966C16.1828 11.8966 17.3958 13.1096 17.3958 14.6016C17.3958 16.0926 16.1828 17.3056 14.6918 17.3056ZM14.6918 10.3796C12.3638 10.3796 10.4698 12.2736 10.4698 14.6016C10.4698 16.9296 12.3638 18.8236 14.6918 18.8236C17.0198 18.8236 18.9138 16.9296 18.9138 14.6016C18.9138 12.2736 17.0198 10.3796 14.6918 10.3796Z" fill="white"/>
<path fill-rule="evenodd" clip-rule="evenodd" d="M11.199 7.6423C9.24899 7.6423 7.66199 9.2283 7.66199 11.1783V18.0233C7.66199 19.9733 9.24899 21.5603 11.199 21.5603H18.043C19.994 21.5603 21.58 19.9733 21.58 18.0233V11.1783C21.58 9.2283 19.994 7.6423 18.043 7.6423H11.199ZM18.043 23.1733H11.199C8.35999 23.1733 6.04999 20.8633 6.04999 18.0233V11.1783C6.04999 8.3393 8.35999 6.0293 11.199 6.0293H18.043C20.883 6.0293 23.193 8.3393 23.193 11.1783V18.0233C23.193 20.8633 20.883 23.1733 18.043 23.1733Z" fill="white"/>
<defs>
<linearGradient id="paint0_linear_1_1622" x1="29.243" y1="0" x2="0" y2="0" gradientUnits="userSpaceOnUse">
<stop stop-color="#FBE18A"/>
<stop offset="0.320203" stop-color="#F75274"/>
<stop offset="0.592603" stop-color="#D53692"/>
<stop offset="0.802174" stop-color="#8F39CE"/>
<stop offset="1" stop-color="#5B4FE9"/>
</linearGradient>
</defs>
</svg>
