<svg width="14" height="16" viewBox="0 0 14 16" fill="none" xmlns="http://www.w3.org/2000/svg">
<path fill-rule="evenodd" clip-rule="evenodd" d="M6.76719 0C8.57475 0 10.2742 0.703906 11.5523 1.98206C12.8304 3.26025 13.5343 4.95962 13.5343 6.76716C13.5343 10.4237 10.077 13.4651 8.21951 15.0991L8.21944 15.0991L8.21792 15.1005C7.96044 15.327 7.73806 15.5226 7.56081 15.6882C7.33828 15.896 7.05275 15.9999 6.76716 15.9999C6.48163 15.9999 6.19603 15.896 5.97353 15.6882C5.79594 15.5223 5.57303 15.3262 5.31491 15.0991C3.45744 13.4652 0 10.4238 0 6.76716C0 4.95962 0.703906 3.26025 1.98206 1.98206C3.26019 0.703906 4.95963 0 6.76719 0ZM6.921 15.0033C7.10881 14.8279 7.33659 14.6275 7.60038 14.3954C9.34663 12.8593 12.5971 9.99997 12.597 6.76719C12.597 3.55256 9.98175 0.937281 6.76713 0.937281C3.55247 0.937281 0.937187 3.55256 0.937187 6.76719C0.937187 9.99997 4.18766 12.8593 5.93391 14.3954L5.9352 14.3965C6.19843 14.6281 6.42581 14.8281 6.61328 15.0033C6.69959 15.0838 6.83472 15.0838 6.921 15.0033Z" fill="#B2D235"/>
<path fill-rule="evenodd" clip-rule="evenodd" d="M3.78491 6.51148C3.78491 4.86708 5.12272 3.5293 6.76713 3.5293C8.41154 3.5293 9.74932 4.86708 9.74932 6.51148C9.74932 8.15589 8.41154 9.49367 6.76713 9.49367C5.12272 9.49367 3.78491 8.15589 3.78491 6.51148ZM4.72216 6.51145C4.72216 7.63902 5.63954 8.55639 6.76713 8.55639C7.89472 8.55639 8.81207 7.63902 8.81207 6.51145C8.81207 5.38389 7.89472 4.46652 6.76713 4.46652C5.63954 4.46652 4.72216 5.38389 4.72216 6.51145Z" fill="#B2D235"/>
</svg>
